# xmcd
#
# Track frame offsets: 
#        150
#        14833
#        30338
#        46052
#        61281
#        76615
#        93190
#        110156
#        135753
#        156277
#        174177
#        189702
#        206537
#        227369
#
# Disc length: 3269 seconds
#
# Revision: 1
# Processed by: cddbd v1.5.2PL0 Copyright (c) Steve Scherf et al.
# Submitted via: ExactAudioCopyFreeDBPlugin 1.0
#
DISCID=a00cc30e
DTITLE=Various Artist - Texas Fed, Texas Bred - Redefining Texas Musi
DTITLE=c
DYEAR=2007
DGENRE=Country
TTITLE0=Deryl Dodd - That's The Stuff
TTITLE1=Cory Morrow - Outside The Lines
TTITLE2=Roger Creager - Long Way To Mexico
TTITLE3=Jason Boland - Pearl Snaps
TTITLE4=McBride and The Ride - Amarillo Sky
TTITLE5=Radney Foster - Prove Me Right
TTITLE6=Robert Earl Keen - What I Really Mean
TTITLE7=Charlie Robison - El Cerrito Place
TTITLE8=Greencards - Time
TTITLE9=BR5-49 - Poison
TTITLE10=Guy Clark - Tornado Time In Texas
TTITLE11=John Arthur Martinez - Amarillo By Morning
TTITLE12=Don Edwards - Coyotes
TTITLE13=Roger Creager - Love (Live)
EXTD=YEAR: 2007
EXTT0=
EXTT1=
EXTT2=
EXTT3=
EXTT4=
EXTT5=
EXTT6=
EXTT7=
EXTT8=
EXTT9=
EXTT10=
EXTT11=
EXTT12=
EXTT13=
PLAYORDER=
